<svg width="47" height="54" viewBox="0 0 47 54" fill="none" xmlns="http://www.w3.org/2000/svg">
<path d="M37.8356 25.9497C37.8356 25.9497 34.702 28.8869 25.9561 28.1772C24.773 28.0788 23.9069 29.2804 24.3717 30.3765C25.6462 33.3418 28.8361 38.4503 36.5258 42.7858L38.9059 44.0295C37.7299 43.2284 37.4553 41.6193 38.2792 40.4599C43.7647 32.7024 46.8561 23.3217 46.8561 13.5054L23.4281 0C21.6746 2.38206 7.28827 23.1952 37.8356 25.9497ZM22.4352 15.2972C23.076 13.3859 25.1462 12.346 27.0687 12.9854C28.984 13.6248 30.0262 15.6907 29.3854 17.609C28.7446 19.5203 26.6743 20.5532 24.7519 19.9208C22.8365 19.2813 21.7944 17.2085 22.4352 15.2972Z" fill="#313131"/>
<path d="M11.4781 44.1489C13.7808 39.5674 16.6538 33.2785 16.7454 30.3132C16.9003 25.3735 9.45008 14.4258 23.3365 0.0561523L0 13.4983C0 22.5206 2.60546 31.1705 7.28825 38.5415C9.27404 41.6614 9.80921 45.4839 8.78111 49.0324C8.67549 49.3908 8.63324 49.5524 8.63324 49.5524C8.98532 48.9833 11.4781 44.1489 11.4781 44.1489Z" fill="#89D32A"/>
<path d="M35.8709 43.5799C32.2584 42.7648 26.4208 40.8184 22.4704 36.3423C21.9281 35.731 20.9423 35.8926 20.6254 36.6445C19.6818 38.8438 17.5904 42.6875 13.4217 46.236C13.4217 46.236 11.2739 48.1753 8.8797 49.412C8.8797 49.412 11.4218 48.6251 14.2244 47.03C16.9637 49.6861 20.048 52.026 23.4421 53.9794C28.0404 51.3303 32.0754 47.9645 35.4484 44.0788C37.1947 44.1982 39.1524 44.1279 39.1524 44.1279C37.7722 44.0085 35.8709 43.5799 35.8709 43.5799Z" fill="#313131"/>
</svg>
